HIERARCHY
ROOT Hips
{
	OFFSET 144.012100 89.812180 255.264099
	CHANNELS 6 Xposition Yposition Zposition Zrotation Yrotation Xrotation 
	JOINT LeftUpLeg
	{
		OFFSET 0.103456 1.857834 10.548498
		CHANNELS 3 Zrotation Yrotation Xrotation
		JOINT LeftLeg
		{
			OFFSET 43.499992 -0.000040 -0.000011
			CHANNELS 3 Zrotation Yrotation Xrotation
			JOINT LeftFoot
			{
				OFFSET 42.372192 0.000015 -0.000003
				CHANNELS 3 Zrotation Yrotation Xrotation
				JOINT LeftToe
				{
					OFFSET 17.300003 0.000002 0.000015
					CHANNELS 3 Zrotation Yrotation Xrotation
					End Site
					{
						OFFSET 0.000000 0.000000 0.000000
					}
				}
			}
		}
	}
	JOINT RightUpLeg
	{
		OFFSET 0.103455 1.857831 -10.548502
		CHANNELS 3 Zrotation Yrotation Xrotation
		JOINT RightLeg
		{
			OFFSET 43.500038 -0.000019 0.000008
			CHANNELS 3 Zrotation Yrotation Xrotation
			JOINT RightFoot
			{
				OFFSET 42.372265 -0.000019 0.000008
				CHANNELS 3 Zrotation Yrotation Xrotation
				JOINT RightToe
				{
					OFFSET 17.299984 -0.000007 0.000027
					CHANNELS 3 Zrotation Yrotation Xrotation
					End Site
					{
						OFFSET 0.000000 0.000000 0.000000
					}
				}
			}
		}
	}
	JOINT Spine
	{
		OFFSET 6.901969 -2.603726 -0.000003
		CHANNELS 3 Zrotation Yrotation Xrotation
		JOINT Spine1
		{
			OFFSET 12.588097 -0.000010 0.000004
			CHANNELS 3 Zrotation Yrotation Xrotation
			JOINT Spine2
			{
				OFFSET 12.343201 0.000004 0.000005
				CHANNELS 3 Zrotation Yrotation Xrotation
				JOINT Neck
				{
					OFFSET 25.832905 0.000013 -0.000010
					CHANNELS 3 Zrotation Yrotation Xrotation
					JOINT Head
					{
						OFFSET 11.766600 -0.000021 0.000000
						CHANNELS 3 Zrotation Yrotation Xrotation
						End Site
						{
							OFFSET 0.000000 0.000000 0.000000
						}
					}
				}
				JOINT LeftShoulder
				{
					OFFSET 19.745911 -1.480368 6.000092
					CHANNELS 3 Zrotation Yrotation Xrotation
					JOINT LeftArm
					{
						OFFSET 11.284128 -0.000006 -0.000023
						CHANNELS 3 Zrotation Yrotation Xrotation
						JOINT LeftForeArm
						{
							OFFSET 33.000057 -0.000001 0.000025
							CHANNELS 3 Zrotation Yrotation Xrotation
							JOINT LeftHand
							{
								OFFSET 25.200012 0.000014 0.000015
								CHANNELS 3 Zrotation Yrotation Xrotation
								End Site
								{
									OFFSET 0.000000 0.000000 0.000000
								}
							}
						}
					}
				}
				JOINT RightShoulder
				{
					OFFSET 19.746101 -1.480364 -6.000078
					CHANNELS 3 Zrotation Yrotation Xrotation
					JOINT RightArm
					{
						OFFSET 11.284142 -0.000002 -0.000011
						CHANNELS 3 Zrotation Yrotation Xrotation
						JOINT RightForeArm
						{
							OFFSET 33.000099 0.000007 0.000015
							CHANNELS 3 Zrotation Yrotation Xrotation
							JOINT RightHand
							{
								OFFSET 25.199781 0.000143 0.000408
								CHANNELS 3 Zrotation Yrotation Xrotation
								End Site
								{
									OFFSET 0.000000 0.000000 0.000000
								}
							}
						}
					}
				}
			}
		}
	}
}
MOTION
Frames: 15
Frame Time: 0.033333
-345.881012 79.938377 -288.189301 78.812030 4.593384 93.316503 133.918932 2.351309 168.019785 -37.514329 1.840479 -2.542677 66.357002 3.735830 4.995903 21.454553 0.003084 -0.000001 165.601953 -0.054995 -164.546429 -89.645195 -3.693954 2.611263 67.526331 2.750322 12.211828 21.454560 -0.003110 -0.000016 7.200175 1.022486 0.983810 4.405768 2.007092 2.005782 4.087668 2.019300 1.993629 -4.130619 3.044367 -4.545209 -22.027630 -7.736204 -0.644838 -158.299893 -86.512884 -23.460187 50.803097 36.219086 60.628181 -125.457611 4.190684 3.536775 -5.741203 -17.156003 7.801200 169.804800 79.055546 -8.895398 9.511057 -53.715637 -33.166282 -114.643100 0.891219 -3.497485 -16.022859 4.048605 -18.569263 
-348.753113 78.091187 -278.752411 78.041926 7.401078 97.079719 138.669014 3.539705 163.169681 -27.054890 1.543892 -3.306758 55.159706 1.655239 -1.713207 21.454551 0.003099 0.000001 161.467899 -1.856904 -166.620580 -99.132382 -3.893291 8.413544 71.295270 -2.530442 10.107549 21.454551 -0.003098 -0.000024 7.378618 1.129886 0.377012 4.753122 2.243380 0.799887 4.434795 2.248323 0.786326 -1.601579 2.771701 -4.698029 -22.778003 -6.886216 -1.270221 -150.780196 -86.468364 -31.022367 52.431203 37.597347 60.810684 -128.463591 4.207724 3.650214 -6.696688 -17.399424 8.867866 166.109012 78.868099 -12.659197 9.267420 -53.138192 -35.997867 -118.117794 0.861797 -3.640905 -16.271469 2.754407 -19.085736 
-351.827698 75.636238 -270.017395 76.958351 10.498139 101.634711 139.508786 3.928808 157.961075 -33.884456 1.676944 -0.113547 55.159447 12.656247 24.881686 21.454553 0.003093 0.000002 154.356811 -2.831491 -167.598431 -104.427001 -4.426689 13.593448 77.026680 -7.677093 6.174152 21.454557 -0.003113 -0.000016 7.607929 1.420808 -0.381463 5.195896 2.857129 -0.699358 4.877401 2.852991 -0.716609 1.472301 3.138153 -4.923977 -23.547605 -6.572155 -1.625382 -137.813068 -86.823186 -44.040175 50.924596 42.742603 60.184943 -129.352991 4.392715 3.670873 -6.980754 -16.893354 8.925822 168.228529 79.850860 -10.467613 11.733204 -54.044200 -36.995050 -118.260600 0.804431 -3.642828 -15.389740 2.473575 -17.707950 
-354.851013 72.068291 -261.550201 78.024454 13.340985 106.599404 139.929457 5.169800 155.196829 -48.465704 4.390385 -4.476767 82.860631 12.570184 41.556445 21.454550 0.003077 0.000000 145.715420 -0.677910 -171.186015 -104.357900 -4.806924 17.182150 82.257833 -10.985898 3.267870 21.454550 -0.003108 -0.000019 7.963838 1.158429 -1.083547 5.894294 2.370203 -2.107394 5.576126 2.357580 -2.121667 4.590724 5.259318 -5.672119 -26.322900 -7.344791 -1.619291 -123.392217 -87.642167 -58.465620 45.393868 50.162002 57.522514 -127.019512 4.316348 3.588262 -7.140369 -15.941994 11.480141 176.659100 80.626565 -1.886539 15.151364 -55.022283 -37.066084 -115.294918 1.059350 -3.536706 -15.576620 4.646293 -16.566289 
-357.696014 69.191162 -253.725403 79.940370 11.826433 117.420104 131.693752 13.238093 171.099790 -67.277117 0.991392 -11.855993 87.499381 14.162955 34.671246 21.454555 0.003099 -0.000002 136.168810 6.727802 -175.597866 -95.349243 -4.944050 16.284715 84.897797 -10.380693 3.559765 21.454560 -0.003101 -0.000021 7.967301 0.409444 -2.447346 5.901980 0.942514 -4.870851 5.585078 0.913258 -4.876428 -2.610842 9.264066 -8.173792 -21.999295 -9.361723 -2.232832 -164.729929 -85.896589 -16.998017 26.988717 56.340601 44.050923 -119.089102 3.376803 3.338337 -8.705500 -14.876161 17.720950 -163.341297 74.265303 18.467501 12.979147 -52.137252 -31.783432 -109.942809 1.473661 -3.336419 -14.884270 6.695148 -15.302153 
-360.107697 67.947632 -246.103394 78.601516 14.849603 124.825204 131.099894 12.847401 176.388338 -80.514345 2.085270 -11.252319 92.949524 11.350273 30.225438 21.454551 0.003102 0.000001 135.171479 6.852094 179.108638 -76.217951 -6.227208 9.759535 82.117923 -5.293925 5.991485 21.454560 -0.003109 -0.000017 8.811404 0.938213 -2.770198 7.562074 2.055027 -5.474044 7.245336 2.022117 -5.486297 -5.290201 10.323293 -10.017908 -22.680383 -8.860848 -3.719436 137.127891 -85.573132 41.501578 10.464114 65.207522 29.408421 -107.204395 1.609980 2.955585 -10.559250 -13.028679 29.778556 -164.603898 73.285471 17.178380 17.580724 -53.060311 -29.764629 -104.298402 2.030485 -3.127625 -13.568906 6.638438 -16.399072 
-362.014404 66.915443 -238.652802 76.607074 18.901222 128.309010 133.345182 6.887894 177.056344 -89.197728 3.135880 -12.847450 102.838593 9.490820 30.164865 21.454558 0.003104 -0.000003 138.996863 3.661696 172.150396 -53.957497 -7.076388 0.536446 72.242781 2.379053 8.092923 21.454565 -0.003096 -0.000010 9.487251 1.811815 -2.552312 8.883908 3.813954 -4.960590 8.566330 3.784104 -4.983479 -5.387017 11.021342 -10.295971 -23.937173 -9.899282 -3.243797 112.627115 -85.502070 66.076835 -1.826415 73.322463 18.146511 -100.160203 0.107539 2.749576 -9.992731 -9.748552 36.293303 -168.445415 74.984446 13.231782 21.930207 -52.683978 -31.689271 -102.712200 1.977649 -3.053564 -14.187911 7.217792 -15.720693 
-363.548004 65.576279 -231.548294 74.620390 20.478618 131.484201 132.313660 0.667403 176.713564 -97.509447 4.024291 -13.340740 108.790495 8.068736 29.724724 21.454555 0.003096 -0.000001 141.905636 2.403509 161.069220 -40.628748 -4.200804 -2.139966 65.365887 5.749410 10.530183 21.454558 -0.003106 -0.000018 9.134341 2.243237 -2.598376 8.159896 4.663710 -5.036203 7.842013 4.633383 -5.064207 -2.562064 11.029431 -9.660125 -23.278294 -10.522037 -2.724651 129.824438 -86.137708 48.786241 -3.595208 72.897052 19.561739 -101.342406 0.632439 2.765433 -8.181250 -9.198265 34.180049 -173.463896 76.158706 8.100048 24.778010 -50.275079 -35.985603 -105.228312 1.453559 -3.128508 -14.558581 7.716861 -14.489522 
-365.591003 63.266979 -223.752594 76.645132 19.901722 141.103389 126.909464 0.410208 179.030897 -109.079590 3.897205 -10.856614 102.622902 8.126446 27.003602 21.454553 0.003105 -0.000003 145.291975 7.417295 160.226143 -45.058625 -3.915783 -1.400958 86.622153 8.976101 40.058814 21.454557 -0.003112 -0.000018 8.688116 1.585841 -3.533331 7.263485 3.389719 -6.963216 6.947332 3.347847 -6.983432 1.075157 11.770653 -9.682276 -24.145921 -10.013010 -3.170810 131.315496 -86.966681 47.224017 -1.982873 69.037633 24.794171 -105.349200 1.491030 2.882576 -6.573145 -7.257348 28.328800 -173.293196 75.981674 8.273065 26.852257 -49.004514 -40.835287 -108.447094 1.455160 -3.270013 -15.114672 8.315699 -14.423345 
-367.291992 61.323662 -217.151505 79.786404 20.396599 151.188396 119.846734 0.536610 -178.167479 -119.217496 3.501079 -7.134337 87.643594 7.971805 18.349621 21.454548 0.003082 0.000002 150.969802 10.619704 170.037505 -48.805462 -8.125214 -5.906375 107.339893 4.779702 49.516437 21.454558 -0.003107 -0.000018 8.921774 0.773239 -3.769554 7.773029 1.797484 -7.479499 7.457700 1.752548 -7.490119 2.440191 12.161316 -11.167516 -23.141472 -8.214395 -5.690403 91.995845 -86.238856 86.632760 0.370658 67.361136 28.304647 -108.900400 2.032405 3.000143 -7.136755 -6.030549 26.746982 -163.776065 74.816977 18.017411 26.659931 -49.393275 -43.677127 -110.337191 1.611883 -3.363141 -15.990041 7.921438 -13.877820 
-368.399689 60.889389 -212.423294 80.455428 21.666931 157.391901 112.385756 -1.515399 -177.627853 -125.407997 3.648135 -7.532386 80.036327 6.940399 7.667215 21.454550 0.003087 0.000002 151.227751 9.532501 170.194900 -56.598209 -5.163533 -5.594747 113.430611 1.688662 49.743291 21.454557 -0.003106 -0.000019 9.258889 0.595117 -3.376777 8.463649 1.435350 -6.701401 8.147827 1.395077 -6.709878 0.457977 12.896646 -12.418164 -22.180698 -7.448174 -6.955267 97.881733 -86.412316 80.743450 3.989699 66.667899 30.840025 -111.066594 2.472180 3.063316 -8.184526 -6.389210 25.120833 -166.924291 72.002468 14.797103 20.858201 -48.039538 -39.385442 -109.100989 1.703158 -3.315814 -16.535729 10.160633 -14.265553 
-368.708313 60.968399 -209.474792 80.723007 20.903507 161.383696 107.700458 -3.720704 177.665241 -125.766418 3.699109 -7.313115 84.788042 6.782630 9.583404 21.454557 0.003093 0.000000 149.825131 11.730503 176.962838 -62.296639 -5.569579 -6.946166 115.392303 1.926762 48.097127 21.454557 -0.003107 -0.000019 9.332405 0.124438 -2.868429 8.640548 0.462510 -5.719502 8.324158 0.428154 -5.722169 -0.934151 12.061820 -12.923606 -22.333358 -6.362107 -7.917231 126.958095 -87.170631 51.574215 11.791821 65.836316 37.520210 -111.493993 2.378084 3.088171 -8.762190 -7.660206 25.019664 -173.381606 73.021300 8.157078 17.581691 -49.347980 -34.319675 -105.850003 1.431991 -3.154438 -15.778767 8.678452 -16.915384 
-368.071411 62.469688 -207.916000 78.689961 21.583049 167.343992 104.502448 -3.557404 172.367706 -120.077608 3.617434 -10.648671 85.306891 8.841085 8.648108 21.454553 0.003092 -0.000001 152.078055 13.162505 -172.922290 -60.777550 -7.160974 -7.343535 115.206508 2.373266 47.795847 21.454560 -0.003108 -0.000017 8.991667 0.243782 -2.377478 7.957226 0.650177 -4.732593 7.640271 0.621754 -4.736417 -1.798916 11.247992 -14.266782 -21.766942 -5.397287 -9.810687 119.713723 -88.383474 58.724225 17.258795 64.278883 43.678588 -112.270504 2.524726 3.111294 -9.501891 -7.679460 27.075454 -172.670406 74.419549 8.898533 18.678033 -50.659779 -33.928818 -105.137198 1.747627 -3.144988 -16.535324 8.871681 -18.761088 
-366.860504 64.613937 -207.136307 76.148679 23.684219 173.959700 104.914554 -2.983400 167.541822 -110.110613 3.696308 -16.311501 87.824621 12.637494 9.815752 21.454572 0.003087 0.000002 155.869944 11.884005 -166.667558 -56.325814 -5.957975 -4.673092 112.812793 1.455438 48.029498 21.454558 -0.003106 -0.000019 8.569533 0.653541 -1.856726 7.104040 1.419469 -3.670167 6.786555 1.397430 -3.678647 -2.476412 11.979371 -15.777819 -22.223612 -5.423670 -11.080010 87.900314 -88.686270 90.495205 18.966530 60.369460 46.568657 -114.060498 2.645461 3.179099 -10.142757 -8.232288 26.865636 -170.518787 73.758339 11.102611 21.573002 -48.493455 -35.301044 -106.764613 1.641888 -3.209320 -17.145291 10.408591 -16.644507 
-364.695587 67.175522 -207.329102 74.365536 26.826674 -179.764801 110.181374 -2.693603 163.607824 -98.760601 3.788425 -20.778011 86.944511 15.478320 8.179406 21.454553 0.003089 0.000000 160.024557 8.293900 -161.638817 -50.324718 -6.718750 -1.483465 106.107603 2.177317 49.761818 21.454558 -0.003110 -0.000018 8.170032 1.270203 -1.418585 6.297293 2.615327 -2.766887 5.979238 2.598717 -2.782624 -2.431026 12.314329 -16.412337 -23.331180 -4.738603 -11.914750 70.368283 -88.777945 107.997886 18.190156 57.593904 46.085769 -114.744501 2.750924 3.200726 -9.359945 -9.485255 25.186736 -172.195080 73.983974 9.383072 24.840932 -46.494327 -36.162942 -107.392902 1.513688 -3.227967 -17.478259 10.497389 -17.504747 
